<mxfile host="app.diagrams.net" modified="2024-06-17T09:47:29.163Z" agent="Mozilla/5.0 (Macintosh; Intel Mac OS X 10_15_7) AppleWebKit/605.1.15 (KHTML, like Gecko) Version/17.5 Safari/605.1.15" version="24.5.4" etag="bKsPwU7Yhr7rrmXvYWyZ" type="github">
  <diagram name="第 1 页" id="zWX1zKkDtNoJiEfwvvJv">
    <mxGraphModel>
      <root>
        <mxCell id="0" />
        <mxCell id="1" parent="0" />
      </root>
    </mxGraphModel>
  </diagram>
</mxfile>
